name C:\Users\r0593348\3dpredictsim\Results\MidTarsalJoint\Fal_s1_bCst_PF_Natali2010_ls150_MT_k200_d010_MTP_T5_ig21.mot
datacolumns 128
datarows 4
range 1.14568167 1.18005212
endheader
time	pelvis_tilt	pelvis_list	pelvis_rotation	pelvis_tx	pelvis_ty	pelvis_tz	hip_flexion_l	hip_adduction_l	hip_rotation_l	hip_flexion_r	hip_adduction_r	hip_rotation_r	knee_angle_l	knee_angle_r	ankle_angle_l	ankle_angle_r	subtalar_angle_l	subtalar_angle_r	mtj_angle_l	mtj_angle_r	mtp_angle_l	mtp_angle_r	lumbar_extension	lumbar_bending	lumbar_rotation	arm_flex_l	arm_add_l	arm_rot_l	arm_flex_r	arm_add_r	arm_rot_r	elbow_flex_l	elbow_flex_r	pro_sup_l	pro_sup_r	glut_med1_l/activation	glut_med2_l/activation	glut_med3_l/activation	glut_min1_l/activation	glut_min2_l/activation	glut_min3_l/activation	semimem_l/activation	semiten_l/activation	bifemlh_l/activation	bifemsh_l/activation	sar_l/activation	add_long_l/activation	add_brev_l/activation	add_mag1_l/activation	add_mag2_l/activation	add_mag3_l/activation	tfl_l/activation	pect_l/activation	grac_l/activation	glut_max1_l/activation	glut_max2_l/activation	glut_max3_l/activation	iliacus_l/activation	psoas_l/activation	quad_fem_l/activation	gem_l/activation	peri_l/activation	rect_fem_l/activation	vas_med_l/activation	vas_int_l/activation	vas_lat_l/activation	med_gas_l/activation	lat_gas_l/activation	soleus_l/activation	tib_post_l/activation	flex_dig_l/activation	flex_hal_l/activation	tib_ant_l/activation	per_brev_l/activation	per_long_l/activation	per_tert_l/activation	ext_dig_l/activation	ext_hal_l/activation	ercspn_l/activation	intobl_l/activation	extobl_l/activation	glut_med1_r/activation	glut_med2_r/activation	glut_med3_r/activation	glut_min1_r/activation	glut_min2_r/activation	glut_min3_r/activation	semimem_r/activation	semiten_r/activation	bifemlh_r/activation	bifemsh_r/activation	sar_r/activation	add_long_r/activation	add_brev_r/activation	add_mag1_r/activation	add_mag2_r/activation	add_mag3_r/activation	tfl_r/activation	pect_r/activation	grac_r/activation	glut_max1_r/activation	glut_max2_r/activation	glut_max3_r/activation	iliacus_r/activation	psoas_r/activation	quad_fem_r/activation	gem_r/activation	peri_r/activation	rect_fem_r/activation	vas_med_r/activation	vas_int_r/activation	vas_lat_r/activation	med_gas_r/activation	lat_gas_r/activation	soleus_r/activation	tib_post_r/activation	flex_dig_r/activation	flex_hal_r/activation	tib_ant_r/activation	per_brev_r/activation	per_long_r/activation	per_tert_r/activation	ext_dig_r/activation	ext_hal_r/activation	ercspn_r/activation	intobl_r/activation	extobl_r/activation	
          1.14568167	         -2.92992958	         -2.24321376	          5.52429228	          1.43210209	          0.91847317	         -0.00175753	        -16.60468187	         -1.23132035	          6.75113189	         29.30393636	          3.44395298	         -2.33290729	         -8.61353413	        -10.55246999	         -2.87169829	          5.34576436	          8.65804242	         -4.57079906	          6.81753006	         -0.04233613	          7.88316680	         -0.84043276	         -1.99811691	          0.37151101	         -2.14546361	          5.31766653	        -13.45465966	         17.11614741	         -4.84582814	        -13.45409892	          7.25783797	         34.26646431	         15.91163606	         86.51662706	         86.51662706	          0.25623112	          0.10058696	          0.07924828	          0.28427528	          0.19431733	          0.10944174	          0.05000069	          0.05000014	          0.05000008	          0.05509540	          0.11564051	          0.06322079	          0.05000460	          0.05000052	          0.05000092	          0.05000032	          0.30447111	          0.07091658	          0.05000096	          0.05000097	          0.05000064	          0.05000056	          0.43049355	          0.63222734	          0.05000008	          0.05000020	          0.05000037	          0.26331157	          0.05000022	          0.05000022	          0.05000020	          0.28796835	          0.39324226	          0.35373163	          0.26863950	          0.24958100	          0.33027535	          0.05000001	          0.05954731	          0.12181469	          0.05000015	          0.05000003	          0.05000012	          0.05000000	          0.05000006	          0.05030231	          0.05954731	          0.05954732	          0.05000009	          0.05954735	          0.05954734	          0.05910951	          0.14739574	          0.06903644	          0.21314928	          0.05954705	          0.05000010	          0.14265506	          0.26656535	          0.13231029	          0.17765065	          0.10700522	          0.05000005	          0.05011257	          0.12970991	          0.05000041	          0.05449381	          0.15695505	          0.05000025	          0.05000005	          0.18821067	          0.27752505	          0.13590241	          0.05000009	          0.10997616	          0.10842654	          0.09786428	          0.06286710	          0.05648971	          0.05711672	          0.05000001	          0.05000032	          0.05000012	          0.48943453	          0.24807622	          0.16402338	          0.20147156	          0.45018030	          0.20330716	          0.05733421	          0.11964600	          0.10206970	
          1.15713849	         -2.92940927	         -2.32019431	          5.80701979	          1.44937750	          0.91750695	         -0.00156535	        -16.57007725	         -1.53352426	          6.56303715	         28.66301726	          3.79462766	         -2.09554854	        -10.36746674	        -10.84180033	         -3.35373346	          4.65933287	          9.65671102	         -4.94757676	          5.81419985	         -0.03806958	          9.66033190	         -0.84572472	         -1.79658602	          0.55952854	         -2.21507028	          5.02688502	        -13.46426772	         17.41785034	         -5.74559221	        -13.44971004	          7.04213539	         35.47307698	         15.51601590	         86.51662706	         86.51662706	          0.21514910	          0.08445967	          0.06654233	          0.23869693	          0.16316208	          0.09189475	          0.05000128	          0.05000031	          0.05000037	          0.05000012	          0.09709979	          0.13866257	          0.05601194	          0.05954764	          0.05954604	          0.05954729	          0.25565473	          0.05954992	          0.05013422	          0.05000203	          0.05000140	          0.05000214	          0.36147171	          0.59432284	          0.05242877	          0.05954954	          0.05954842	          0.22131713	          0.12929562	          0.11535610	          0.13683245	          0.24179781	          0.33019296	          0.31102769	          0.23139239	          0.20956546	          0.27732208	          0.05000002	          0.05000006	          0.13245339	          0.05000006	          0.05000001	          0.05000010	          0.05673116	          0.06575836	          0.05954746	          0.05000000	          0.05000002	          0.10106678	          0.05000002	          0.05000002	          0.05000003	          0.12376352	          0.05796772	          0.17897464	          0.05000006	          0.05954197	          0.11978316	          0.28440484	          0.30652097	          0.20288900	          0.10941203	          0.05000024	          0.07091760	          0.12905201	          0.05000465	          0.08641256	          0.13179038	          0.05000007	          0.06490835	          0.48106297	          0.23302891	          0.11411293	          0.05954792	          0.12913984	          0.12884580	          0.11218404	          0.06251877	          0.06302467	          0.05000003	          0.05954740	          0.05000169	          0.05954730	          0.46209939	          0.27720256	          0.20416985	          0.16916929	          0.41507202	          0.17071055	          0.05000000	          0.10046292	          0.08570466	
          1.16859530	         -2.92459677	         -2.40097986	          6.05699392	          1.46697533	          0.91660237	         -0.00139490	        -16.48075840	         -1.83670243	          6.36889956	         27.90505441	          4.05128467	         -1.83122145	        -12.19876629	        -11.38216379	         -3.95995742	          4.10719734	         10.61436310	         -5.34082460	          4.61163852	         -0.27495532	         11.59721379	         -0.84283279	         -1.57256543	          0.76085503	         -2.27224196	          4.64908962	        -13.46996498	         17.63271659	         -6.67712127	        -13.45343348	          6.87963923	         36.66824855	         15.17979317	         86.51662706	         86.51662706	          0.32969982	          0.07091810	          0.05627910	          0.32451607	          0.13700205	          0.07716112	          0.05000070	          0.05000009	          0.05000008	          0.05000012	          0.08153201	          0.11643055	          0.05000019	          0.05000037	          0.05000042	          0.05000031	          0.25879322	          0.05000274	          0.05000037	          0.05000309	          0.05000148	          0.05000060	          0.30351630	          0.56755393	          0.05000024	          0.05000214	          0.05000101	          0.18583296	          0.10856560	          0.09686103	          0.11489398	          0.20302987	          0.27725246	          0.26116000	          0.19429282	          0.17596549	          0.23285855	          0.05000000	          0.09118869	          0.15502190	          0.05000008	          0.05000004	          0.05000008	          0.05000002	          0.05521520	          0.05000010	          0.23024867	          0.23033748	          0.28372302	          0.34638251	          0.23129486	          0.21078120	          0.10776850	          0.06490241	          0.15027932	          0.08142413	          0.05000043	          0.10057811	          0.23880567	          0.25737589	          0.17035949	          0.11519024	          0.05000021	          0.05954786	          0.10836115	          0.05000022	          0.10053794	          0.11066029	          0.05780127	          0.05450152	          0.40393319	          0.19566697	          0.20548740	          0.05000050	          0.10843462	          0.10818773	          0.09419737	          0.05249504	          0.05291985	          0.05042682	          0.05000008	          0.05000018	          0.05000028	          0.53116202	          0.32401275	          0.17143515	          0.33425282	          0.48673628	          0.14334046	          0.05842178	          0.12061633	          0.07196346	
          1.18005212	         -2.91779121	         -2.47512780	          6.26974551	          1.48467625	          0.91580251	         -0.00120046	        -16.29014822	         -2.12944692	          6.18903086	         27.10315794	          4.28129712	         -1.56895367	        -14.16129909	        -11.88525842	         -4.71289683	          3.56952289	         11.53826783	         -5.73425024	          3.26542516	         -0.22232386	         13.60588924	         -0.79815854	         -1.35037230	          0.96347123	         -2.32001892	          4.22096070	        -13.48069733	         17.78533540	         -7.59260817	        -13.45746482	          6.76951981	         37.83226654	         14.88179283	         86.51662706	         86.51662706	          0.29721904	          0.05954767	          0.05000007	          0.27248611	          0.11503627	          0.06478975	          0.05000107	          0.05000011	          0.05000010	          0.05000011	          0.06846001	          0.11957928	          0.05000053	          0.05000053	          0.05000095	          0.05000038	          0.21730056	          0.06552278	          0.05000070	          0.05000119	          0.05000071	          0.05000046	          0.25485294	          0.52378759	          0.05000013	          0.05000046	          0.05000010	          0.15603800	          0.11475416	          0.11979226	          0.11979276	          0.17047768	          0.23280001	          0.21928768	          0.16314147	          0.14775264	          0.19552391	          0.05979485	          0.09415939	          0.15802930	          0.05000020	          0.11136099	          0.05000039	          0.07131327	          0.05000000	          0.05000001	          0.32712856	          0.32143261	          0.34808179	          0.29084638	          0.19421136	          0.19172063	          0.09049004	          0.07251740	          0.12618478	          0.06836935	          0.05000052	          0.08445224	          0.20051750	          0.21611038	          0.14304565	          0.15112211	          0.05000017	          0.05000073	          0.09098752	          0.20396669	          0.17210324	          0.14598024	          0.05000002	          0.05000003	          0.33916979	          0.16429533	          0.17254131	          0.05000003	          0.11104711	          0.12725566	          0.08675264	          0.05000001	          0.05000002	          0.05000000	          0.05000000	          0.05000005	          0.05000004	          0.58908065	          0.30196144	          0.16562207	          0.55428049	          0.52873695	          0.25441225	          0.07804322	          0.10127768	          0.06042542	
